<mxfile host="app.diagrams.net" modified="2022-11-28T08:10:12.591Z" agent="5.0 (Windows NT 10.0; Win64; x64) AppleWebKit/537.36 (KHTML, like Gecko) Chrome/107.0.0.0 Safari/537.36" etag="IJsP_zb3MQDrXWkAqnNl" version="20.6.0" type="github">
  <diagram id="slPfWzJpBYyBcs_0Y2tc" name="Page-1">
    <mxGraphModel dx="5140" dy="2913" grid="0" gridSize="10" guides="1" tooltips="1" connect="1" arrows="1" fold="1" page="0" pageScale="1" pageWidth="827" pageHeight="1169" math="0" shadow="0">
      <root>
        <mxCell id="0" />
        <mxCell id="1" parent="0" />
        <mxCell id="fys4buLAGZXGw3ZMUwzv-1" value="" style="shape=cylinder3;whiteSpace=wrap;html=1;boundedLbl=1;backgroundOutline=1;size=15;rounded=1;fillColor=none;fontColor=#ffffff;strokeColor=default;shadow=0;sketch=1;" parent="1" vertex="1">
          <mxGeometry x="-8" y="-107" width="155" height="163" as="geometry" />
        </mxCell>
        <mxCell id="fys4buLAGZXGw3ZMUwzv-2" value="&lt;b style=&quot;font-size: 53px;&quot;&gt;&lt;u style=&quot;font-size: 53px;&quot;&gt;&lt;font style=&quot;font-size: 53px;&quot;&gt;Storage&lt;/font&gt;&lt;/u&gt;&lt;/b&gt;" style="text;html=1;align=center;verticalAlign=middle;resizable=0;points=[];autosize=1;strokeColor=none;fillColor=none;rounded=1;fontSize=53;glass=0;shadow=0;sketch=1;" parent="1" vertex="1">
          <mxGeometry x="162" y="-56" width="215" height="76" as="geometry" />
        </mxCell>
        <mxCell id="fys4buLAGZXGw3ZMUwzv-3" value="" style="shape=curlyBracket;whiteSpace=wrap;html=1;rounded=1;labelPosition=left;verticalLabelPosition=middle;align=right;verticalAlign=middle;fontSize=38;sketch=1;" parent="1" vertex="1">
          <mxGeometry x="113" y="211" width="20" height="109" as="geometry" />
        </mxCell>
        <mxCell id="FFQsLvCmIjyaZJ9t75WD-10" style="edgeStyle=orthogonalEdgeStyle;rounded=1;orthogonalLoop=1;jettySize=auto;html=1;entryX=0.1;entryY=0.5;entryDx=0;entryDy=0;entryPerimeter=0;fontSize=46;sketch=1;curved=1;" parent="1" source="fys4buLAGZXGw3ZMUwzv-8" target="fys4buLAGZXGw3ZMUwzv-3" edge="1">
          <mxGeometry relative="1" as="geometry" />
        </mxCell>
        <mxCell id="fys4buLAGZXGw3ZMUwzv-8" value="NFTHolder" style="text;html=1;align=center;verticalAlign=middle;resizable=0;points=[];autosize=1;strokeColor=#001DBC;fillColor=#0050ef;fontSize=19;strokeWidth=1;rounded=1;sketch=1;fontColor=#ffffff;" parent="1" vertex="1">
          <mxGeometry x="-38" y="195" width="111" height="35" as="geometry" />
        </mxCell>
        <mxCell id="fys4buLAGZXGw3ZMUwzv-4" value="remaining_amount : 8 byte" style="text;html=1;align=center;verticalAlign=middle;resizable=0;points=[];autosize=1;strokeColor=none;fillColor=none;fontSize=19;strokeWidth=1;rounded=1;sketch=1;" parent="1" vertex="1">
          <mxGeometry x="132" y="211" width="243" height="35" as="geometry" />
        </mxCell>
        <mxCell id="FFQsLvCmIjyaZJ9t75WD-22" value="" style="group;sketch=1;rounded=1;" parent="1" vertex="1" connectable="0">
          <mxGeometry x="126" y="416" width="125" height="333" as="geometry" />
        </mxCell>
        <mxCell id="fys4buLAGZXGw3ZMUwzv-5" value="name" style="text;html=1;align=center;verticalAlign=middle;resizable=0;points=[];autosize=1;strokeColor=none;fillColor=none;fontSize=19;strokeWidth=1;rounded=1;sketch=1;" parent="FFQsLvCmIjyaZJ9t75WD-22" vertex="1">
          <mxGeometry y="169" width="66" height="35" as="geometry" />
        </mxCell>
        <mxCell id="fys4buLAGZXGw3ZMUwzv-6" value="token_uri" style="text;html=1;align=center;verticalAlign=middle;resizable=0;points=[];autosize=1;strokeColor=none;fillColor=none;fontSize=19;strokeWidth=1;rounded=1;sketch=1;" parent="FFQsLvCmIjyaZJ9t75WD-22" vertex="1">
          <mxGeometry y="212" width="96" height="35" as="geometry" />
        </mxCell>
        <mxCell id="fys4buLAGZXGw3ZMUwzv-7" value="checksum" style="text;html=1;align=center;verticalAlign=middle;resizable=0;points=[];autosize=1;strokeColor=none;fillColor=none;fontSize=19;strokeWidth=1;rounded=1;sketch=1;" parent="FFQsLvCmIjyaZJ9t75WD-22" vertex="1">
          <mxGeometry x="0.5" y="254" width="104" height="35" as="geometry" />
        </mxCell>
        <mxCell id="FFQsLvCmIjyaZJ9t75WD-30" value="" style="shape=curlyBracket;whiteSpace=wrap;html=1;rounded=1;flipH=1;labelPosition=right;verticalLabelPosition=middle;align=left;verticalAlign=middle;shadow=0;glass=0;strokeColor=default;fontSize=19;fillColor=none;gradientColor=default;sketch=1;" parent="FFQsLvCmIjyaZJ9t75WD-22" vertex="1">
          <mxGeometry x="109" y="164" width="20" height="163" as="geometry" />
        </mxCell>
        <mxCell id="FFQsLvCmIjyaZJ9t75WD-34" value="Hash" style="text;html=1;align=center;verticalAlign=middle;resizable=0;points=[];autosize=1;strokeColor=none;fillColor=none;fontSize=19;sketch=1;rounded=1;" parent="FFQsLvCmIjyaZJ9t75WD-22" vertex="1">
          <mxGeometry x="-37" y="83" width="62" height="35" as="geometry" />
        </mxCell>
        <mxCell id="TIqElKuYXnwf6aJma85_-64" value="price : u128" style="text;html=1;align=center;verticalAlign=middle;resizable=0;points=[];autosize=1;strokeColor=none;fillColor=none;fontSize=19;strokeWidth=1;rounded=1;sketch=1;" vertex="1" parent="FFQsLvCmIjyaZJ9t75WD-22">
          <mxGeometry y="289" width="117" height="35" as="geometry" />
        </mxCell>
        <mxCell id="jut3q2HTJbx5DlrBCJ6_-7" style="edgeStyle=orthogonalEdgeStyle;rounded=1;orthogonalLoop=1;jettySize=auto;html=1;entryX=0.1;entryY=0.5;entryDx=0;entryDy=0;entryPerimeter=0;sketch=1;curved=1;" parent="1" source="FFQsLvCmIjyaZJ9t75WD-25" target="FFQsLvCmIjyaZJ9t75WD-26" edge="1">
          <mxGeometry relative="1" as="geometry" />
        </mxCell>
        <mxCell id="FFQsLvCmIjyaZJ9t75WD-25" value="Metadata" style="text;html=1;align=center;verticalAlign=middle;resizable=0;points=[];autosize=1;strokeColor=#001DBC;fillColor=#0050ef;fontSize=19;strokeWidth=1;rounded=1;fontColor=#ffffff;sketch=1;" parent="1" vertex="1">
          <mxGeometry x="-63" y="626" width="97" height="35" as="geometry" />
        </mxCell>
        <mxCell id="FFQsLvCmIjyaZJ9t75WD-26" value="" style="shape=curlyBracket;whiteSpace=wrap;html=1;rounded=1;labelPosition=left;verticalLabelPosition=middle;align=right;verticalAlign=middle;fontSize=38;sketch=1;" parent="1" vertex="1">
          <mxGeometry x="113" y="581" width="20" height="164" as="geometry" />
        </mxCell>
        <mxCell id="FFQsLvCmIjyaZJ9t75WD-29" value="token_id : 8 byte" style="text;html=1;align=center;verticalAlign=middle;resizable=0;points=[];autosize=1;strokeColor=none;fillColor=none;fontSize=19;strokeWidth=1;rounded=1;sketch=1;" parent="1" vertex="1">
          <mxGeometry x="132" y="284" width="157" height="35" as="geometry" />
        </mxCell>
        <mxCell id="TIqElKuYXnwf6aJma85_-66" style="edgeStyle=orthogonalEdgeStyle;rounded=0;sketch=1;hachureGap=4;jiggle=2;orthogonalLoop=1;jettySize=auto;html=1;entryX=-0.019;entryY=0.508;entryDx=0;entryDy=0;entryPerimeter=0;fontFamily=Architects Daughter;fontSource=https%3A%2F%2Ffonts.googleapis.com%2Fcss%3Ffamily%3DArchitects%2BDaughter;fontSize=16;" edge="1" parent="1" source="FFQsLvCmIjyaZJ9t75WD-31" target="TIqElKuYXnwf6aJma85_-65">
          <mxGeometry relative="1" as="geometry" />
        </mxCell>
        <mxCell id="FFQsLvCmIjyaZJ9t75WD-31" value="Blake2b&lt;br&gt;32 bytes" style="shape=process;whiteSpace=wrap;html=1;backgroundOutline=1;rounded=1;shadow=0;glass=0;strokeColor=default;fontSize=19;fillColor=none;gradientColor=default;sketch=1;" parent="1" vertex="1">
          <mxGeometry x="18" y="397" width="120" height="60" as="geometry" />
        </mxCell>
        <mxCell id="FFQsLvCmIjyaZJ9t75WD-32" style="edgeStyle=orthogonalEdgeStyle;rounded=1;orthogonalLoop=1;jettySize=auto;html=1;exitX=0.1;exitY=0.5;exitDx=0;exitDy=0;exitPerimeter=0;entryX=0;entryY=0.5;entryDx=0;entryDy=0;fontSize=19;sketch=1;curved=1;" parent="1" source="FFQsLvCmIjyaZJ9t75WD-30" target="FFQsLvCmIjyaZJ9t75WD-31" edge="1">
          <mxGeometry relative="1" as="geometry">
            <Array as="points">
              <mxPoint x="270" y="646" />
              <mxPoint x="270" y="531" />
              <mxPoint y="531" />
              <mxPoint y="427" />
            </Array>
          </mxGeometry>
        </mxCell>
        <mxCell id="jut3q2HTJbx5DlrBCJ6_-8" style="edgeStyle=orthogonalEdgeStyle;rounded=1;sketch=1;hachureGap=4;jiggle=2;orthogonalLoop=1;jettySize=auto;html=1;entryX=0.1;entryY=0.5;entryDx=0;entryDy=0;entryPerimeter=0;fontFamily=Architects Daughter;fontSource=https%3A%2F%2Ffonts.googleapis.com%2Fcss%3Ffamily%3DArchitects%2BDaughter;fontSize=16;curved=1;" parent="1" source="FFQsLvCmIjyaZJ9t75WD-36" target="fys4buLAGZXGw3ZMUwzv-3" edge="1">
          <mxGeometry relative="1" as="geometry" />
        </mxCell>
        <mxCell id="FFQsLvCmIjyaZJ9t75WD-36" value="24 bytes" style="text;html=1;align=center;verticalAlign=middle;resizable=0;points=[];autosize=1;fontSize=16;sketch=1;rounded=1;" parent="1" vertex="1">
          <mxGeometry x="-66" y="291.5" width="78" height="31" as="geometry" />
        </mxCell>
        <mxCell id="FFQsLvCmIjyaZJ9t75WD-60" value="Groups" style="text;html=1;align=center;verticalAlign=middle;resizable=0;points=[];autosize=1;strokeColor=none;fillColor=none;fontSize=32;fontStyle=4;sketch=1;rounded=1;" parent="1" vertex="1">
          <mxGeometry x="528.5" y="-156.5" width="123" height="50" as="geometry" />
        </mxCell>
        <mxCell id="FFQsLvCmIjyaZJ9t75WD-61" value="Producer" style="text;html=1;align=center;verticalAlign=middle;resizable=0;points=[];autosize=1;strokeColor=none;fillColor=none;fontSize=27;sketch=1;rounded=1;" parent="1" vertex="1">
          <mxGeometry x="654.5" y="-53" width="128" height="44" as="geometry" />
        </mxCell>
        <mxCell id="FFQsLvCmIjyaZJ9t75WD-62" value="Publisher" style="text;html=1;align=center;verticalAlign=middle;resizable=0;points=[];autosize=1;strokeColor=none;fillColor=none;fontSize=27;sketch=1;rounded=1;" parent="1" vertex="1">
          <mxGeometry x="654.5" y="17.5" width="131" height="44" as="geometry" />
        </mxCell>
        <mxCell id="FFQsLvCmIjyaZJ9t75WD-71" style="edgeStyle=orthogonalEdgeStyle;rounded=1;orthogonalLoop=1;jettySize=auto;html=1;entryX=0.001;entryY=0.601;entryDx=0;entryDy=0;entryPerimeter=0;fontSize=27;sketch=1;curved=1;" parent="1" source="FFQsLvCmIjyaZJ9t75WD-64" target="FFQsLvCmIjyaZJ9t75WD-61" edge="1">
          <mxGeometry relative="1" as="geometry" />
        </mxCell>
        <mxCell id="FFQsLvCmIjyaZJ9t75WD-72" style="edgeStyle=orthogonalEdgeStyle;rounded=1;orthogonalLoop=1;jettySize=auto;html=1;entryX=0.001;entryY=0.496;entryDx=0;entryDy=0;entryPerimeter=0;fontSize=27;sketch=1;curved=1;" parent="1" source="FFQsLvCmIjyaZJ9t75WD-64" target="FFQsLvCmIjyaZJ9t75WD-62" edge="1">
          <mxGeometry relative="1" as="geometry" />
        </mxCell>
        <mxCell id="FFQsLvCmIjyaZJ9t75WD-64" value="" style="shape=card;whiteSpace=wrap;html=1;rounded=1;shadow=0;glass=0;strokeColor=default;fontSize=27;fillColor=none;gradientColor=default;sketch=1;" parent="1" vertex="1">
          <mxGeometry x="516" y="-172" width="148" height="81" as="geometry" />
        </mxCell>
        <mxCell id="FFQsLvCmIjyaZJ9t75WD-90" value="" style="shape=curlyBracket;whiteSpace=wrap;html=1;rounded=1;labelPosition=left;verticalLabelPosition=middle;align=right;verticalAlign=middle;fontSize=38;sketch=1;" parent="1" vertex="1">
          <mxGeometry x="87.5" y="812" width="20" height="208" as="geometry" />
        </mxCell>
        <mxCell id="FFQsLvCmIjyaZJ9t75WD-91" style="edgeStyle=orthogonalEdgeStyle;rounded=1;orthogonalLoop=1;jettySize=auto;html=1;entryX=0.1;entryY=0.5;entryDx=0;entryDy=0;entryPerimeter=0;fontSize=46;sketch=1;curved=1;" parent="1" source="FFQsLvCmIjyaZJ9t75WD-92" target="FFQsLvCmIjyaZJ9t75WD-90" edge="1">
          <mxGeometry relative="1" as="geometry" />
        </mxCell>
        <mxCell id="FFQsLvCmIjyaZJ9t75WD-92" value="ApprovedNFT" style="text;html=1;align=center;verticalAlign=middle;resizable=0;points=[];autosize=1;strokeColor=#001DBC;fillColor=#0050ef;fontSize=19;strokeWidth=1;rounded=1;sketch=1;fontColor=#ffffff;" parent="1" vertex="1">
          <mxGeometry x="-76.5" y="794" width="136" height="35" as="geometry" />
        </mxCell>
        <mxCell id="FFQsLvCmIjyaZJ9t75WD-94" value="amount" style="text;html=1;align=left;verticalAlign=middle;resizable=0;points=[];autosize=1;strokeColor=none;fillColor=none;fontSize=19;strokeWidth=1;rounded=1;sketch=1;" parent="1" vertex="1">
          <mxGeometry x="116" y="851" width="81" height="35" as="geometry" />
        </mxCell>
        <mxCell id="jut3q2HTJbx5DlrBCJ6_-9" value="Holder_id" style="text;html=1;align=center;verticalAlign=middle;resizable=0;points=[];autosize=1;strokeColor=none;fillColor=none;fontSize=19;strokeWidth=1;rounded=1;sketch=1;" parent="1" vertex="1">
          <mxGeometry x="110" y="816" width="99" height="35" as="geometry" />
        </mxCell>
        <mxCell id="TIqElKuYXnwf6aJma85_-1" value="" style="rounded=1;whiteSpace=wrap;html=1;sketch=1;" vertex="1" parent="1">
          <mxGeometry x="636" y="209" width="603" height="129" as="geometry" />
        </mxCell>
        <mxCell id="TIqElKuYXnwf6aJma85_-3" style="edgeStyle=orthogonalEdgeStyle;rounded=0;orthogonalLoop=1;jettySize=auto;html=1;entryX=0;entryY=0.5;entryDx=0;entryDy=0;curved=1;sketch=1;" edge="1" parent="1" source="TIqElKuYXnwf6aJma85_-2" target="TIqElKuYXnwf6aJma85_-1">
          <mxGeometry relative="1" as="geometry" />
        </mxCell>
        <mxCell id="TIqElKuYXnwf6aJma85_-2" value="Approved" style="text;html=1;align=center;verticalAlign=middle;resizable=0;points=[];autosize=1;strokeColor=#001DBC;fillColor=#0050ef;fontSize=19;strokeWidth=1;rounded=1;sketch=1;fontColor=#ffffff;" vertex="1" parent="1">
          <mxGeometry x="457" y="235" width="99" height="35" as="geometry" />
        </mxCell>
        <mxCell id="TIqElKuYXnwf6aJma85_-6" style="edgeStyle=orthogonalEdgeStyle;rounded=0;sketch=1;hachureGap=4;jiggle=2;orthogonalLoop=1;jettySize=auto;html=1;fontFamily=Architects Daughter;fontSource=https%3A%2F%2Ffonts.googleapis.com%2Fcss%3Ffamily%3DArchitects%2BDaughter;fontSize=16;" edge="1" parent="1" source="TIqElKuYXnwf6aJma85_-4" target="TIqElKuYXnwf6aJma85_-5">
          <mxGeometry relative="1" as="geometry" />
        </mxCell>
        <mxCell id="TIqElKuYXnwf6aJma85_-4" value="Approved_id" style="text;html=1;align=center;verticalAlign=middle;resizable=0;points=[];autosize=1;strokeColor=none;fillColor=none;fontSize=19;strokeWidth=1;rounded=1;sketch=1;" vertex="1" parent="1">
          <mxGeometry x="652" y="256" width="125" height="35" as="geometry" />
        </mxCell>
        <mxCell id="TIqElKuYXnwf6aJma85_-5" value="&lt;span style=&quot;color: rgb(255, 255, 255);&quot;&gt;ApprovedNFT&lt;/span&gt;" style="text;html=1;align=center;verticalAlign=middle;resizable=0;points=[];autosize=1;strokeColor=none;fillColor=none;fontSize=19;strokeWidth=1;rounded=1;sketch=1;" vertex="1" parent="1">
          <mxGeometry x="1069" y="256" width="136" height="35" as="geometry" />
        </mxCell>
        <mxCell id="TIqElKuYXnwf6aJma85_-7" value="" style="rounded=1;whiteSpace=wrap;html=1;sketch=1;" vertex="1" parent="1">
          <mxGeometry x="636" y="367" width="603" height="129" as="geometry" />
        </mxCell>
        <mxCell id="TIqElKuYXnwf6aJma85_-8" style="edgeStyle=orthogonalEdgeStyle;rounded=0;orthogonalLoop=1;jettySize=auto;html=1;entryX=0;entryY=0.5;entryDx=0;entryDy=0;curved=1;sketch=1;" edge="1" parent="1" source="TIqElKuYXnwf6aJma85_-9" target="TIqElKuYXnwf6aJma85_-7">
          <mxGeometry relative="1" as="geometry" />
        </mxCell>
        <mxCell id="TIqElKuYXnwf6aJma85_-9" value="Holders" style="text;html=1;align=center;verticalAlign=middle;resizable=0;points=[];autosize=1;strokeColor=#001DBC;fillColor=#0050ef;fontSize=19;strokeWidth=1;rounded=1;sketch=1;fontColor=#ffffff;" vertex="1" parent="1">
          <mxGeometry x="465" y="393" width="83" height="35" as="geometry" />
        </mxCell>
        <mxCell id="TIqElKuYXnwf6aJma85_-10" style="edgeStyle=orthogonalEdgeStyle;rounded=0;sketch=1;hachureGap=4;jiggle=2;orthogonalLoop=1;jettySize=auto;html=1;fontFamily=Architects Daughter;fontSource=https%3A%2F%2Ffonts.googleapis.com%2Fcss%3Ffamily%3DArchitects%2BDaughter;fontSize=16;" edge="1" parent="1" source="TIqElKuYXnwf6aJma85_-11" target="TIqElKuYXnwf6aJma85_-12">
          <mxGeometry relative="1" as="geometry" />
        </mxCell>
        <mxCell id="TIqElKuYXnwf6aJma85_-11" value="Holder_id" style="text;html=1;align=center;verticalAlign=middle;resizable=0;points=[];autosize=1;strokeColor=none;fillColor=none;fontSize=19;strokeWidth=1;rounded=1;sketch=1;" vertex="1" parent="1">
          <mxGeometry x="665" y="414" width="99" height="35" as="geometry" />
        </mxCell>
        <mxCell id="TIqElKuYXnwf6aJma85_-12" value="NFTHolder" style="text;html=1;align=center;verticalAlign=middle;resizable=0;points=[];autosize=1;strokeColor=none;fillColor=none;fontSize=19;strokeWidth=1;rounded=1;sketch=1;" vertex="1" parent="1">
          <mxGeometry x="1082" y="414" width="111" height="35" as="geometry" />
        </mxCell>
        <mxCell id="TIqElKuYXnwf6aJma85_-13" value="" style="rounded=1;whiteSpace=wrap;html=1;sketch=1;" vertex="1" parent="1">
          <mxGeometry x="636" y="525" width="603" height="129" as="geometry" />
        </mxCell>
        <mxCell id="TIqElKuYXnwf6aJma85_-14" style="edgeStyle=orthogonalEdgeStyle;rounded=0;orthogonalLoop=1;jettySize=auto;html=1;entryX=0;entryY=0.5;entryDx=0;entryDy=0;curved=1;sketch=1;" edge="1" parent="1" source="TIqElKuYXnwf6aJma85_-15" target="TIqElKuYXnwf6aJma85_-13">
          <mxGeometry relative="1" as="geometry" />
        </mxCell>
        <mxCell id="TIqElKuYXnwf6aJma85_-15" value="Owners" style="text;html=1;align=center;verticalAlign=middle;resizable=0;points=[];autosize=1;strokeColor=#001DBC;fillColor=#0050ef;fontSize=19;strokeWidth=1;rounded=1;sketch=1;fontColor=#ffffff;" vertex="1" parent="1">
          <mxGeometry x="465" y="551" width="83" height="35" as="geometry" />
        </mxCell>
        <mxCell id="TIqElKuYXnwf6aJma85_-16" style="edgeStyle=orthogonalEdgeStyle;rounded=0;sketch=1;hachureGap=4;jiggle=2;orthogonalLoop=1;jettySize=auto;html=1;fontFamily=Architects Daughter;fontSource=https%3A%2F%2Ffonts.googleapis.com%2Fcss%3Ffamily%3DArchitects%2BDaughter;fontSize=16;" edge="1" parent="1" source="TIqElKuYXnwf6aJma85_-17" target="TIqElKuYXnwf6aJma85_-18">
          <mxGeometry relative="1" as="geometry" />
        </mxCell>
        <mxCell id="TIqElKuYXnwf6aJma85_-17" value="Account&lt;br&gt;Hash" style="text;html=1;align=center;verticalAlign=middle;resizable=0;points=[];autosize=1;strokeColor=none;fillColor=none;fontSize=19;strokeWidth=1;rounded=1;sketch=1;" vertex="1" parent="1">
          <mxGeometry x="671" y="561" width="87" height="58" as="geometry" />
        </mxCell>
        <mxCell id="TIqElKuYXnwf6aJma85_-18" value="List&amp;lt;Holder_id&amp;gt;" style="text;html=1;align=center;verticalAlign=middle;resizable=0;points=[];autosize=1;strokeColor=none;fillColor=none;fontSize=19;strokeWidth=1;rounded=1;sketch=1;" vertex="1" parent="1">
          <mxGeometry x="1062" y="572" width="151" height="35" as="geometry" />
        </mxCell>
        <mxCell id="TIqElKuYXnwf6aJma85_-19" value="" style="rounded=1;whiteSpace=wrap;html=1;sketch=1;" vertex="1" parent="1">
          <mxGeometry x="636" y="687" width="603" height="129" as="geometry" />
        </mxCell>
        <mxCell id="TIqElKuYXnwf6aJma85_-20" style="edgeStyle=orthogonalEdgeStyle;rounded=0;orthogonalLoop=1;jettySize=auto;html=1;entryX=0;entryY=0.5;entryDx=0;entryDy=0;curved=1;sketch=1;" edge="1" parent="1" source="TIqElKuYXnwf6aJma85_-21" target="TIqElKuYXnwf6aJma85_-19">
          <mxGeometry relative="1" as="geometry" />
        </mxCell>
        <mxCell id="TIqElKuYXnwf6aJma85_-21" value="PubApproved" style="text;html=1;align=center;verticalAlign=middle;resizable=0;points=[];autosize=1;strokeColor=#001DBC;fillColor=#0050ef;fontSize=19;strokeWidth=1;rounded=1;sketch=1;fontColor=#ffffff;" vertex="1" parent="1">
          <mxGeometry x="440" y="713" width="133" height="35" as="geometry" />
        </mxCell>
        <mxCell id="TIqElKuYXnwf6aJma85_-22" style="edgeStyle=orthogonalEdgeStyle;rounded=0;sketch=1;hachureGap=4;jiggle=2;orthogonalLoop=1;jettySize=auto;html=1;fontFamily=Architects Daughter;fontSource=https%3A%2F%2Ffonts.googleapis.com%2Fcss%3Ffamily%3DArchitects%2BDaughter;fontSize=16;" edge="1" parent="1" source="TIqElKuYXnwf6aJma85_-23" target="TIqElKuYXnwf6aJma85_-24">
          <mxGeometry relative="1" as="geometry" />
        </mxCell>
        <mxCell id="TIqElKuYXnwf6aJma85_-23" value="Pub&lt;br&gt;Account-Hash" style="text;html=1;align=center;verticalAlign=middle;resizable=0;points=[];autosize=1;strokeColor=none;fillColor=none;fontSize=19;strokeWidth=1;rounded=1;sketch=1;" vertex="1" parent="1">
          <mxGeometry x="646" y="723" width="137" height="58" as="geometry" />
        </mxCell>
        <mxCell id="TIqElKuYXnwf6aJma85_-24" value="List&amp;lt;Approved_id&amp;gt;" style="text;html=1;align=center;verticalAlign=middle;resizable=0;points=[];autosize=1;strokeColor=none;fillColor=none;fontSize=19;strokeWidth=1;rounded=1;sketch=1;" vertex="1" parent="1">
          <mxGeometry x="1050" y="734" width="176" height="35" as="geometry" />
        </mxCell>
        <mxCell id="TIqElKuYXnwf6aJma85_-25" value="" style="rounded=1;whiteSpace=wrap;html=1;sketch=1;" vertex="1" parent="1">
          <mxGeometry x="1562" y="203" width="603" height="129" as="geometry" />
        </mxCell>
        <mxCell id="TIqElKuYXnwf6aJma85_-26" style="edgeStyle=orthogonalEdgeStyle;rounded=0;orthogonalLoop=1;jettySize=auto;html=1;entryX=0;entryY=0.5;entryDx=0;entryDy=0;curved=1;sketch=1;" edge="1" parent="1" source="TIqElKuYXnwf6aJma85_-27" target="TIqElKuYXnwf6aJma85_-25">
          <mxGeometry relative="1" as="geometry" />
        </mxCell>
        <mxCell id="TIqElKuYXnwf6aJma85_-27" value="ProdApproved" style="text;html=1;align=center;verticalAlign=middle;resizable=0;points=[];autosize=1;strokeColor=#001DBC;fillColor=#0050ef;fontSize=19;strokeWidth=1;rounded=1;sketch=1;fontColor=#ffffff;" vertex="1" parent="1">
          <mxGeometry x="1364" y="230" width="139" height="35" as="geometry" />
        </mxCell>
        <mxCell id="TIqElKuYXnwf6aJma85_-28" style="edgeStyle=orthogonalEdgeStyle;rounded=0;sketch=1;hachureGap=4;jiggle=2;orthogonalLoop=1;jettySize=auto;html=1;fontFamily=Architects Daughter;fontSource=https%3A%2F%2Ffonts.googleapis.com%2Fcss%3Ffamily%3DArchitects%2BDaughter;fontSize=16;" edge="1" parent="1" source="TIqElKuYXnwf6aJma85_-29" target="TIqElKuYXnwf6aJma85_-30">
          <mxGeometry relative="1" as="geometry" />
        </mxCell>
        <mxCell id="TIqElKuYXnwf6aJma85_-29" value="Prod&lt;br&gt;Account-Hash" style="text;html=1;align=center;verticalAlign=middle;resizable=0;points=[];autosize=1;strokeColor=none;fillColor=none;fontSize=19;strokeWidth=1;rounded=1;sketch=1;" vertex="1" parent="1">
          <mxGeometry x="1572" y="239" width="137" height="58" as="geometry" />
        </mxCell>
        <mxCell id="TIqElKuYXnwf6aJma85_-30" value="List&amp;lt;Approved_id&amp;gt;" style="text;html=1;align=center;verticalAlign=middle;resizable=0;points=[];autosize=1;strokeColor=none;fillColor=none;fontSize=19;strokeWidth=1;rounded=1;sketch=1;" vertex="1" parent="1">
          <mxGeometry x="1976" y="250" width="176" height="35" as="geometry" />
        </mxCell>
        <mxCell id="TIqElKuYXnwf6aJma85_-31" value="" style="rounded=1;whiteSpace=wrap;html=1;sketch=1;" vertex="1" parent="1">
          <mxGeometry x="1562" y="365" width="603" height="129" as="geometry" />
        </mxCell>
        <mxCell id="TIqElKuYXnwf6aJma85_-32" style="edgeStyle=orthogonalEdgeStyle;rounded=0;orthogonalLoop=1;jettySize=auto;html=1;entryX=0;entryY=0.5;entryDx=0;entryDy=0;curved=1;sketch=1;" edge="1" parent="1" source="TIqElKuYXnwf6aJma85_-33" target="TIqElKuYXnwf6aJma85_-31">
          <mxGeometry relative="1" as="geometry" />
        </mxCell>
        <mxCell id="TIqElKuYXnwf6aJma85_-33" value="Metadatas" style="text;html=1;align=center;verticalAlign=middle;resizable=0;points=[];autosize=1;strokeColor=#001DBC;fillColor=#0050ef;fontSize=19;strokeWidth=1;rounded=1;sketch=1;fontColor=#ffffff;" vertex="1" parent="1">
          <mxGeometry x="1380" y="392" width="107" height="35" as="geometry" />
        </mxCell>
        <mxCell id="TIqElKuYXnwf6aJma85_-34" style="edgeStyle=orthogonalEdgeStyle;rounded=0;sketch=1;hachureGap=4;jiggle=2;orthogonalLoop=1;jettySize=auto;html=1;fontFamily=Architects Daughter;fontSource=https%3A%2F%2Ffonts.googleapis.com%2Fcss%3Ffamily%3DArchitects%2BDaughter;fontSize=16;" edge="1" parent="1" source="TIqElKuYXnwf6aJma85_-35" target="TIqElKuYXnwf6aJma85_-36">
          <mxGeometry relative="1" as="geometry" />
        </mxCell>
        <mxCell id="TIqElKuYXnwf6aJma85_-35" value="token_id" style="text;html=1;align=center;verticalAlign=middle;resizable=0;points=[];autosize=1;strokeColor=none;fillColor=none;fontSize=19;strokeWidth=1;rounded=1;sketch=1;" vertex="1" parent="1">
          <mxGeometry x="1596" y="413" width="90" height="35" as="geometry" />
        </mxCell>
        <mxCell id="TIqElKuYXnwf6aJma85_-36" value="Metadata" style="text;html=1;align=center;verticalAlign=middle;resizable=0;points=[];autosize=1;strokeColor=none;fillColor=none;fontSize=19;strokeWidth=1;rounded=1;sketch=1;" vertex="1" parent="1">
          <mxGeometry x="2016" y="412" width="97" height="35" as="geometry" />
        </mxCell>
        <mxCell id="TIqElKuYXnwf6aJma85_-37" value="" style="rounded=1;whiteSpace=wrap;html=1;sketch=1;" vertex="1" parent="1">
          <mxGeometry x="1562" y="523.8800000000001" width="603" height="129" as="geometry" />
        </mxCell>
        <mxCell id="TIqElKuYXnwf6aJma85_-38" style="edgeStyle=orthogonalEdgeStyle;rounded=0;orthogonalLoop=1;jettySize=auto;html=1;entryX=0;entryY=0.5;entryDx=0;entryDy=0;curved=1;sketch=1;" edge="1" parent="1" source="TIqElKuYXnwf6aJma85_-39" target="TIqElKuYXnwf6aJma85_-37">
          <mxGeometry relative="1" as="geometry" />
        </mxCell>
        <mxCell id="TIqElKuYXnwf6aJma85_-39" value="token_id by hash" style="text;html=1;align=center;verticalAlign=middle;resizable=0;points=[];autosize=1;strokeColor=#001DBC;fillColor=#0050ef;fontSize=19;strokeWidth=1;rounded=1;sketch=1;fontColor=#ffffff;" vertex="1" parent="1">
          <mxGeometry x="1353" y="550.8800000000001" width="162" height="35" as="geometry" />
        </mxCell>
        <mxCell id="TIqElKuYXnwf6aJma85_-40" style="edgeStyle=orthogonalEdgeStyle;rounded=0;sketch=1;hachureGap=4;jiggle=2;orthogonalLoop=1;jettySize=auto;html=1;fontFamily=Architects Daughter;fontSource=https%3A%2F%2Ffonts.googleapis.com%2Fcss%3Ffamily%3DArchitects%2BDaughter;fontSize=16;" edge="1" parent="1" source="TIqElKuYXnwf6aJma85_-41" target="TIqElKuYXnwf6aJma85_-42">
          <mxGeometry relative="1" as="geometry" />
        </mxCell>
        <mxCell id="TIqElKuYXnwf6aJma85_-41" value="&lt;span style=&quot;font-family: &amp;quot;Architects Daughter&amp;quot;; font-size: 20px;&quot;&gt;MetadataHash&lt;/span&gt;" style="text;html=1;align=center;verticalAlign=middle;resizable=0;points=[];autosize=1;strokeColor=#006EAF;fillColor=#1ba1e2;fontSize=19;strokeWidth=1;rounded=1;sketch=1;fontColor=#ffffff;" vertex="1" parent="1">
          <mxGeometry x="1569" y="571.8800000000001" width="145" height="36" as="geometry" />
        </mxCell>
        <mxCell id="TIqElKuYXnwf6aJma85_-42" value="token_id" style="text;html=1;align=center;verticalAlign=middle;resizable=0;points=[];autosize=1;strokeColor=none;fillColor=none;fontSize=19;strokeWidth=1;rounded=1;sketch=1;" vertex="1" parent="1">
          <mxGeometry x="2020" y="570.8800000000001" width="90" height="35" as="geometry" />
        </mxCell>
        <mxCell id="TIqElKuYXnwf6aJma85_-43" value="" style="rounded=1;whiteSpace=wrap;html=1;sketch=1;" vertex="1" parent="1">
          <mxGeometry x="1562" y="683" width="603" height="129" as="geometry" />
        </mxCell>
        <mxCell id="TIqElKuYXnwf6aJma85_-44" style="edgeStyle=orthogonalEdgeStyle;rounded=0;orthogonalLoop=1;jettySize=auto;html=1;entryX=0;entryY=0.5;entryDx=0;entryDy=0;curved=1;sketch=1;" edge="1" parent="1" source="TIqElKuYXnwf6aJma85_-45" target="TIqElKuYXnwf6aJma85_-43">
          <mxGeometry relative="1" as="geometry" />
        </mxCell>
        <mxCell id="TIqElKuYXnwf6aJma85_-45" value="publishers&lt;br&gt;Percentage" style="text;html=1;align=center;verticalAlign=middle;resizable=0;points=[];autosize=1;strokeColor=#001DBC;fillColor=#0050ef;fontSize=19;strokeWidth=1;rounded=1;sketch=1;fontColor=#ffffff;" vertex="1" parent="1">
          <mxGeometry x="1377" y="699" width="115" height="58" as="geometry" />
        </mxCell>
        <mxCell id="TIqElKuYXnwf6aJma85_-46" style="edgeStyle=orthogonalEdgeStyle;rounded=0;sketch=1;hachureGap=4;jiggle=2;orthogonalLoop=1;jettySize=auto;html=1;fontFamily=Architects Daughter;fontSource=https%3A%2F%2Ffonts.googleapis.com%2Fcss%3Ffamily%3DArchitects%2BDaughter;fontSize=16;" edge="1" parent="1" source="TIqElKuYXnwf6aJma85_-47" target="TIqElKuYXnwf6aJma85_-48">
          <mxGeometry relative="1" as="geometry" />
        </mxCell>
        <mxCell id="TIqElKuYXnwf6aJma85_-47" value="Pub&lt;br&gt;AccountHash" style="text;html=1;align=center;verticalAlign=middle;resizable=0;points=[];autosize=1;strokeColor=none;fillColor=none;fontSize=19;strokeWidth=1;rounded=1;sketch=1;" vertex="1" parent="1">
          <mxGeometry x="1576" y="720" width="131" height="58" as="geometry" />
        </mxCell>
        <mxCell id="TIqElKuYXnwf6aJma85_-48" value="percentage" style="text;html=1;align=center;verticalAlign=middle;resizable=0;points=[];autosize=1;strokeColor=none;fillColor=none;fontSize=19;strokeWidth=1;rounded=1;sketch=1;" vertex="1" parent="1">
          <mxGeometry x="2009" y="730" width="113" height="35" as="geometry" />
        </mxCell>
        <mxCell id="TIqElKuYXnwf6aJma85_-49" value="" style="rounded=1;whiteSpace=wrap;html=1;sketch=1;" vertex="1" parent="1">
          <mxGeometry x="636" y="854" width="603" height="129" as="geometry" />
        </mxCell>
        <mxCell id="TIqElKuYXnwf6aJma85_-50" style="edgeStyle=orthogonalEdgeStyle;rounded=0;orthogonalLoop=1;jettySize=auto;html=1;entryX=0;entryY=0.5;entryDx=0;entryDy=0;curved=1;sketch=1;" edge="1" parent="1" source="TIqElKuYXnwf6aJma85_-51" target="TIqElKuYXnwf6aJma85_-49">
          <mxGeometry relative="1" as="geometry" />
        </mxCell>
        <mxCell id="TIqElKuYXnwf6aJma85_-51" value="tokens count" style="text;html=1;align=center;verticalAlign=middle;resizable=0;points=[];autosize=1;strokeColor=#001DBC;fillColor=#0050ef;fontSize=19;strokeWidth=1;rounded=1;sketch=1;fontColor=#ffffff;" vertex="1" parent="1">
          <mxGeometry x="446" y="882" width="126" height="35" as="geometry" />
        </mxCell>
        <mxCell id="TIqElKuYXnwf6aJma85_-53" value="Number of tokens minted till now" style="text;html=1;align=center;verticalAlign=middle;resizable=0;points=[];autosize=1;strokeColor=none;fillColor=none;fontSize=19;strokeWidth=1;rounded=1;sketch=1;" vertex="1" parent="1">
          <mxGeometry x="783" y="901" width="294" height="35" as="geometry" />
        </mxCell>
        <mxCell id="TIqElKuYXnwf6aJma85_-55" value="" style="rounded=1;whiteSpace=wrap;html=1;sketch=1;" vertex="1" parent="1">
          <mxGeometry x="636" y="1016" width="603" height="129" as="geometry" />
        </mxCell>
        <mxCell id="TIqElKuYXnwf6aJma85_-56" style="edgeStyle=orthogonalEdgeStyle;rounded=0;orthogonalLoop=1;jettySize=auto;html=1;entryX=0;entryY=0.5;entryDx=0;entryDy=0;curved=1;sketch=1;" edge="1" parent="1" source="TIqElKuYXnwf6aJma85_-57" target="TIqElKuYXnwf6aJma85_-55">
          <mxGeometry relative="1" as="geometry" />
        </mxCell>
        <mxCell id="TIqElKuYXnwf6aJma85_-57" value="holders count" style="text;html=1;align=center;verticalAlign=middle;resizable=0;points=[];autosize=1;strokeColor=#001DBC;fillColor=#0050ef;fontSize=19;strokeWidth=1;rounded=1;sketch=1;fontColor=#ffffff;" vertex="1" parent="1">
          <mxGeometry x="443" y="1044" width="132" height="35" as="geometry" />
        </mxCell>
        <mxCell id="TIqElKuYXnwf6aJma85_-58" value="Number of NFTHolders added till now" style="text;html=1;align=center;verticalAlign=middle;resizable=0;points=[];autosize=1;strokeColor=none;fillColor=none;fontSize=19;strokeWidth=1;rounded=1;sketch=1;" vertex="1" parent="1">
          <mxGeometry x="762" y="1063" width="336" height="35" as="geometry" />
        </mxCell>
        <mxCell id="TIqElKuYXnwf6aJma85_-59" value="" style="rounded=1;whiteSpace=wrap;html=1;sketch=1;" vertex="1" parent="1">
          <mxGeometry x="636" y="1183" width="603" height="129" as="geometry" />
        </mxCell>
        <mxCell id="TIqElKuYXnwf6aJma85_-60" style="edgeStyle=orthogonalEdgeStyle;rounded=0;orthogonalLoop=1;jettySize=auto;html=1;entryX=0;entryY=0.5;entryDx=0;entryDy=0;curved=1;sketch=1;" edge="1" parent="1" source="TIqElKuYXnwf6aJma85_-61" target="TIqElKuYXnwf6aJma85_-59">
          <mxGeometry relative="1" as="geometry" />
        </mxCell>
        <mxCell id="TIqElKuYXnwf6aJma85_-61" value="Approved count" style="text;html=1;align=center;verticalAlign=middle;resizable=0;points=[];autosize=1;strokeColor=#001DBC;fillColor=#0050ef;fontSize=19;strokeWidth=1;rounded=1;sketch=1;fontColor=#ffffff;" vertex="1" parent="1">
          <mxGeometry x="434" y="1211" width="151" height="35" as="geometry" />
        </mxCell>
        <mxCell id="TIqElKuYXnwf6aJma85_-62" value="Number of approved nfts added to 1 till now" style="text;html=1;align=center;verticalAlign=middle;resizable=0;points=[];autosize=1;strokeColor=none;fillColor=none;fontSize=19;strokeWidth=1;rounded=1;sketch=1;" vertex="1" parent="1">
          <mxGeometry x="737" y="1230" width="386" height="35" as="geometry" />
        </mxCell>
        <mxCell id="TIqElKuYXnwf6aJma85_-63" value="amount : 8 byte" style="text;html=1;align=center;verticalAlign=middle;resizable=0;points=[];autosize=1;strokeColor=none;fillColor=none;fontSize=19;strokeWidth=1;rounded=1;sketch=1;" vertex="1" parent="1">
          <mxGeometry x="132" y="246" width="149" height="35" as="geometry" />
        </mxCell>
        <mxCell id="TIqElKuYXnwf6aJma85_-65" value="MetadataHash" style="text;html=1;align=center;verticalAlign=middle;resizable=0;points=[];autosize=1;strokeColor=#006EAF;fillColor=#1ba1e2;fontSize=20;fontFamily=Architects Daughter;sketch=1;hachureGap=4;jiggle=2;fontSource=https%3A%2F%2Ffonts.googleapis.com%2Fcss%3Ffamily%3DArchitects%2BDaughter;fontColor=#ffffff;" vertex="1" parent="1">
          <mxGeometry x="223" y="409" width="145" height="36" as="geometry" />
        </mxCell>
        <mxCell id="TIqElKuYXnwf6aJma85_-69" value="owner account hash" style="text;html=1;align=center;verticalAlign=middle;resizable=0;points=[];autosize=1;strokeColor=none;fillColor=none;fontSize=20;fontFamily=Architects Daughter;sketch=1;hachureGap=4;jiggle=2;fontSource=https%3A%2F%2Ffonts.googleapis.com%2Fcss%3Ffamily%3DArchitects%2BDaughter;" vertex="1" parent="1">
          <mxGeometry x="110" y="888" width="208" height="36" as="geometry" />
        </mxCell>
        <mxCell id="TIqElKuYXnwf6aJma85_-70" value="publisher account hash" style="text;html=1;align=center;verticalAlign=middle;resizable=0;points=[];autosize=1;strokeColor=none;fillColor=none;fontSize=20;fontFamily=Architects Daughter;sketch=1;hachureGap=4;jiggle=2;fontSource=https%3A%2F%2Ffonts.googleapis.com%2Fcss%3Ffamily%3DArchitects%2BDaughter;" vertex="1" parent="1">
          <mxGeometry x="110" y="935" width="230" height="36" as="geometry" />
        </mxCell>
        <mxCell id="TIqElKuYXnwf6aJma85_-71" value="token_id" style="text;html=1;align=center;verticalAlign=middle;resizable=0;points=[];autosize=1;strokeColor=none;fillColor=none;fontSize=20;fontFamily=Architects Daughter;sketch=1;hachureGap=4;jiggle=2;fontSource=https%3A%2F%2Ffonts.googleapis.com%2Fcss%3Ffamily%3DArchitects%2BDaughter;" vertex="1" parent="1">
          <mxGeometry x="110" y="982" width="97" height="36" as="geometry" />
        </mxCell>
      </root>
    </mxGraphModel>
  </diagram>
</mxfile>
